<?xml version="1.0" standalone="no"?>
<!DOCTYPE svg PUBLIC "-//W3C//DTD SVG 20010904//EN"
 "http://www.w3.org/TR/2001/REC-SVG-20010904/DTD/svg10.dtd">
<svg version="1.0" xmlns="http://www.w3.org/2000/svg"
 width="450.000000pt" height="360.000000pt" viewBox="280 0 350.000000 30.000000"
 preserveAspectRatio="xMidYMid meet">

<g transform="translate(0.000000,360.000000) scale(0.200000,-0.180000)"
fill="#007BFF" stroke="none">
<path d="M1955 2457 c-22 -8 -61 -25 -85 -39 -83 -47 -144 -61 -242 -55 l-88
6 0 -400 0 -399 33 -21 c51 -32 169 -23 267 21 127 57 216 52 305 -16 l45 -34
0 453 0 453 -31 18 c-41 24 -150 31 -204 13z"/>
<path d="M2382 2456 c-78 -25 -72 12 -72 -488 0 -302 3 -447 10 -443 6 4 8 10
5 15 -3 4 23 23 58 41 85 45 153 45 257 1 140 -59 232 -66 289 -25 l26 20 3
396 2 395 -22 -2 c-13 -2 -42 -6 -64 -10 -63 -11 -144 8 -247 58 -105 52 -176
64 -245 42z"/>
</g>
</svg>
